<?xml version="1.0" encoding="UTF-8"?>
<svg xmlns="http://www.w3.org/2000/svg" xmlns:xlink="http://www.w3.org/1999/xlink" width="344.14pt" height="35.12pt" viewBox="0 0 344.14 35.12">
<defs>
<g>
<g id="glyph-0-0">
<path d="M 7.640625 -15.9375 C 7.734375 -16.28125 7.734375 -16.328125 7.734375 -16.34375 C 7.734375 -16.671875 7.46875 -16.78125 7.203125 -16.78125 C 7.109375 -16.78125 7.09375 -16.78125 7.03125 -16.765625 L 3.921875 -16.609375 C 3.578125 -16.59375 3.140625 -16.5625 3.140625 -15.890625 C 3.140625 -15.453125 3.578125 -15.453125 3.765625 -15.453125 C 4.046875 -15.453125 4.46875 -15.453125 4.796875 -15.40625 L 1.3125 -1.453125 C 1.28125 -1.359375 1.203125 -0.984375 1.203125 -0.890625 C 1.203125 -0.3125 1.671875 0.1875 2.375 0.1875 C 2.515625 0.1875 3.609375 0.1875 3.9375 -1.15625 L 5.390625 -6.890625 C 5.515625 -7.359375 5.515625 -7.40625 5.875 -7.890625 C 6.265625 -8.421875 7.46875 -10.0625 9.484375 -10.0625 C 10.109375 -10.0625 10.6875 -9.8125 10.6875 -8.640625 C 10.6875 -7.234375 9.625 -4.40625 9.171875 -3.21875 C 8.90625 -2.5625 8.828125 -2.390625 8.828125 -1.984375 C 8.828125 -0.578125 10.234375 0.1875 11.5625 0.1875 C 14.125 0.1875 15.328125 -3.09375 15.328125 -3.578125 C 15.328125 -3.921875 14.96875 -3.921875 14.75 -3.921875 C 14.46875 -3.921875 14.296875 -3.921875 14.203125 -3.609375 C 13.421875 -0.921875 12.09375 -0.671875 11.703125 -0.671875 C 11.53125 -0.671875 11.296875 -0.671875 11.296875 -1.1875 C 11.296875 -1.71875 11.5625 -2.375 11.703125 -2.75 C 12.171875 -3.9375 13.28125 -6.765625 13.28125 -8.125 C 13.28125 -10.359375 11.421875 -10.9375 9.671875 -10.9375 C 9.140625 -10.9375 7.671875 -10.9375 6.015625 -9.4375 Z M 7.640625 -15.9375 "/>
</g>
<g id="glyph-0-1">
<path d="M 8.203125 -10.734375 C 3.21875 -10.734375 1.015625 -6.171875 1.015625 -3.65625 C 1.015625 -1.046875 2.96875 0.1875 5.5625 0.1875 C 9.984375 0.1875 12.546875 -3.140625 12.546875 -6.578125 C 12.546875 -7.1875 12.453125 -7.84375 12.21875 -8.421875 L 14.53125 -8.421875 C 15 -8.421875 15.390625 -8.421875 15.75 -8.78125 C 15.921875 -8.953125 16.234375 -9.234375 16.234375 -9.796875 C 16.234375 -10.734375 15.390625 -10.734375 14.953125 -10.734375 Z M 5.609375 -0.671875 C 3.5 -0.671875 3.5 -2.375 3.5 -2.75 C 3.5 -3.671875 4.046875 -5.96875 4.59375 -6.875 C 5.078125 -7.6875 5.875 -8.421875 7.71875 -8.421875 C 9.703125 -8.421875 9.9375 -7.59375 9.9375 -6.71875 C 9.9375 -6 9.453125 -3.578125 8.6875 -2.390625 C 7.6875 -0.890625 6.28125 -0.671875 5.609375 -0.671875 Z M 5.609375 -0.671875 "/>
</g>
<g id="glyph-0-2">
<path d="M 26.359375 -14.53125 C 26.65625 -15 26.9375 -15.4375 28.46875 -15.453125 C 28.765625 -15.453125 29.1875 -15.453125 29.1875 -16.15625 C 29.1875 -16.375 29 -16.59375 28.765625 -16.59375 C 28.109375 -16.59375 27.375 -16.515625 26.703125 -16.515625 C 25.78125 -16.515625 24.8125 -16.59375 23.921875 -16.59375 C 23.734375 -16.59375 23.265625 -16.59375 23.265625 -15.890625 C 23.265625 -15.453125 23.703125 -15.453125 23.875 -15.453125 C 23.96875 -15.453125 24.9375 -15.453125 25.5625 -15.1875 L 18.578125 -4.140625 L 17.125 -15.328125 C 17.578125 -15.4375 18.328125 -15.453125 18.703125 -15.453125 C 19.203125 -15.453125 19.59375 -15.453125 19.59375 -16.15625 C 19.59375 -16.1875 19.59375 -16.59375 19.078125 -16.59375 C 18.28125 -16.59375 16.328125 -16.515625 15.53125 -16.515625 C 15.015625 -16.515625 14.484375 -16.546875 13.984375 -16.546875 C 13.28125 -16.546875 12.40625 -16.59375 12.359375 -16.59375 C 12.1875 -16.59375 11.703125 -16.59375 11.703125 -15.890625 C 11.703125 -15.453125 12.125 -15.453125 12.5 -15.453125 C 12.875 -15.453125 13.34375 -15.4375 13.671875 -15.40625 L 13.984375 -12.984375 C 13.984375 -12.921875 13.984375 -12.875 13.78125 -12.609375 L 8.4375 -4.140625 L 6.984375 -15.328125 C 7.453125 -15.4375 8.203125 -15.453125 8.5625 -15.453125 C 9.125 -15.453125 9.140625 -15.484375 9.265625 -15.59375 C 9.40625 -15.71875 9.453125 -16.140625 9.453125 -16.15625 C 9.453125 -16.1875 9.453125 -16.59375 8.953125 -16.59375 C 8.15625 -16.59375 6.171875 -16.515625 5.375 -16.515625 C 4.859375 -16.515625 4.328125 -16.546875 3.828125 -16.546875 C 3.171875 -16.546875 2.25 -16.59375 2.21875 -16.59375 C 2.03125 -16.59375 1.578125 -16.59375 1.578125 -15.890625 C 1.578125 -15.453125 1.953125 -15.453125 2.375 -15.453125 C 2.734375 -15.453125 3.21875 -15.4375 3.53125 -15.40625 L 5.484375 -0.3125 C 5.5625 0.171875 5.609375 0.40625 6.1875 0.40625 C 6.703125 0.40625 6.921875 0.234375 7.203125 -0.21875 L 14.203125 -11.3125 L 15.625 -0.3125 C 15.703125 0.234375 15.765625 0.40625 16.34375 0.40625 C 16.890625 0.40625 17.078125 0.21875 17.34375 -0.21875 Z M 26.359375 -14.53125 "/>
</g>
<g id="glyph-0-3">
<path d="M 12.96875 -9.703125 C 12.09375 -9.453125 11.65625 -8.640625 11.65625 -8.03125 C 11.65625 -7.5 12.0625 -6.921875 12.875 -6.921875 C 13.71875 -6.921875 14.609375 -7.625 14.609375 -8.796875 C 14.609375 -10.09375 13.328125 -10.9375 11.859375 -10.9375 C 10.46875 -10.9375 9.578125 -9.890625 9.265625 -9.453125 C 8.65625 -10.46875 7.296875 -10.9375 5.921875 -10.9375 C 2.875 -10.9375 1.234375 -7.953125 1.234375 -7.15625 C 1.234375 -6.828125 1.59375 -6.828125 1.8125 -6.828125 C 2.109375 -6.828125 2.28125 -6.828125 2.375 -7.140625 C 3.078125 -9.34375 4.8125 -10.0625 5.8125 -10.0625 C 6.71875 -10.0625 7.15625 -9.625 7.15625 -8.859375 C 7.15625 -8.390625 6.828125 -7.0625 6.609375 -6.1875 L 5.78125 -2.875 C 5.421875 -1.40625 4.546875 -0.671875 3.71875 -0.671875 C 3.609375 -0.671875 3.046875 -0.671875 2.5625 -1.046875 C 3.4375 -1.28125 3.875 -2.109375 3.875 -2.703125 C 3.875 -3.234375 3.453125 -3.828125 2.65625 -3.828125 C 1.8125 -3.828125 0.921875 -3.125 0.921875 -1.9375 C 0.921875 -0.65625 2.203125 0.1875 3.671875 0.1875 C 5.0625 0.1875 5.953125 -0.84375 6.265625 -1.28125 C 6.875 -0.265625 8.21875 0.1875 9.609375 0.1875 C 12.65625 0.1875 14.296875 -2.78125 14.296875 -3.578125 C 14.296875 -3.921875 13.9375 -3.921875 13.71875 -3.921875 C 13.421875 -3.921875 13.25 -3.921875 13.15625 -3.609375 C 12.453125 -1.40625 10.71875 -0.671875 9.71875 -0.671875 C 8.796875 -0.671875 8.375 -1.109375 8.375 -1.890625 C 8.375 -2.390625 8.6875 -3.671875 8.90625 -4.578125 C 9.078125 -5.203125 9.625 -7.46875 9.75 -7.859375 C 10.109375 -9.3125 10.953125 -10.0625 11.796875 -10.0625 C 11.921875 -10.0625 12.484375 -10.0625 12.96875 -9.703125 Z M 12.96875 -9.703125 "/>
</g>
<g id="glyph-0-4">
<path d="M 6.796875 -15.9375 C 6.890625 -16.28125 6.890625 -16.328125 6.890625 -16.34375 C 6.890625 -16.671875 6.625 -16.78125 6.359375 -16.78125 C 6.265625 -16.78125 6.234375 -16.78125 6.1875 -16.765625 L 3.078125 -16.609375 C 2.734375 -16.59375 2.296875 -16.5625 2.296875 -15.890625 C 2.296875 -15.453125 2.75 -15.453125 2.921875 -15.453125 C 3.1875 -15.453125 3.625 -15.453125 3.9375 -15.40625 C 3.75 -14.578125 3.5 -13.546875 3.265625 -12.625 L 1.59375 -5.953125 C 1.25 -4.59375 1.25 -4.3125 1.25 -3.75 C 1.25 -0.65625 3.5625 0.1875 5.375 0.1875 C 9.75 0.1875 12.234375 -3.75 12.234375 -6.9375 C 12.234375 -9.921875 10.015625 -10.9375 8 -10.9375 C 6.84375 -10.9375 5.875 -10.46875 5.375 -10.15625 Z M 5.421875 -0.671875 C 4.46875 -0.671875 3.671875 -1.1875 3.671875 -2.6875 C 3.671875 -3.453125 3.921875 -4.359375 4.09375 -5.109375 C 4.328125 -6.015625 4.734375 -7.6875 4.90625 -8.421875 C 5.03125 -8.828125 6.40625 -10.0625 7.890625 -10.0625 C 9.390625 -10.0625 9.5 -8.75 9.5 -8.21875 C 9.5 -6.96875 8.6875 -3.984375 8.296875 -3.046875 C 7.46875 -1.09375 6.125 -0.671875 5.421875 -0.671875 Z M 5.421875 -0.671875 "/>
</g>
<g id="glyph-1-0">
<path d="M 4.265625 -9.890625 C 4.3125 -10.09375 4.3125 -10.125 4.3125 -10.140625 C 4.3125 -10.328125 4.15625 -10.40625 3.984375 -10.40625 C 3.9375 -10.40625 3.921875 -10.40625 3.890625 -10.390625 L 1.953125 -10.3125 C 1.734375 -10.296875 1.46875 -10.28125 1.46875 -9.859375 C 1.46875 -9.578125 1.75 -9.578125 1.859375 -9.578125 C 2.03125 -9.578125 2.296875 -9.578125 2.484375 -9.5625 L 0.5625 -1.859375 C 0.53125 -1.6875 0.5 -1.5625 0.5 -1.34375 C 0.5 -0.359375 1.484375 0.125 2.375 0.125 C 2.921875 0.125 3.34375 -0.1875 3.671875 -0.734375 C 4.03125 -1.3125 4.25 -2.125 4.25 -2.21875 C 4.25 -2.4375 4.015625 -2.4375 3.890625 -2.4375 C 3.71875 -2.4375 3.65625 -2.4375 3.578125 -2.359375 C 3.5625 -2.328125 3.5625 -2.296875 3.46875 -1.921875 C 3.1875 -0.78125 2.84375 -0.421875 2.4375 -0.421875 C 2.21875 -0.421875 2.09375 -0.5625 2.09375 -0.953125 C 2.09375 -1.265625 2.140625 -1.40625 2.1875 -1.625 Z M 4.265625 -9.890625 "/>
</g>
<g id="glyph-1-1">
<path d="M 3.78125 -5.953125 L 5.109375 -5.953125 C 5.421875 -5.953125 5.4375 -5.953125 5.515625 -6.03125 C 5.609375 -6.09375 5.65625 -6.296875 5.65625 -6.390625 C 5.65625 -6.65625 5.40625 -6.65625 5.15625 -6.65625 L 3.953125 -6.65625 L 4.4375 -8.59375 C 4.5 -8.828125 4.5 -8.921875 4.5 -8.984375 C 4.5 -9.46875 4.109375 -9.640625 3.796875 -9.640625 C 3.5625 -9.640625 3.171875 -9.546875 2.921875 -9.125 C 2.859375 -9 2.6875 -8.3125 2.578125 -7.890625 L 2.28125 -6.65625 L 0.9375 -6.65625 C 0.625 -6.65625 0.375 -6.65625 0.375 -6.21875 C 0.375 -5.953125 0.609375 -5.953125 0.890625 -5.953125 L 2.09375 -5.953125 L 1.25 -2.53125 C 1.140625 -2.140625 0.984375 -1.515625 0.984375 -1.34375 C 0.984375 -0.375 1.953125 0.125 2.875 0.125 C 4.671875 0.125 5.6875 -1.96875 5.6875 -2.21875 C 5.6875 -2.4375 5.453125 -2.4375 5.328125 -2.4375 C 5.0625 -2.4375 5.0625 -2.421875 4.953125 -2.1875 C 4.375 -0.90625 3.546875 -0.421875 2.953125 -0.421875 C 2.8125 -0.421875 2.59375 -0.421875 2.59375 -0.96875 C 2.59375 -1.265625 2.640625 -1.421875 2.6875 -1.625 Z M 3.78125 -5.953125 "/>
</g>
<g id="glyph-1-2">
<path d="M 8.046875 -6.015625 C 7.5 -5.859375 7.234375 -5.359375 7.234375 -4.984375 C 7.234375 -4.65625 7.484375 -4.296875 7.984375 -4.296875 C 8.5 -4.296875 9.0625 -4.71875 9.0625 -5.453125 C 9.0625 -6.25 8.265625 -6.78125 7.34375 -6.78125 C 6.5 -6.78125 5.9375 -6.140625 5.75 -5.859375 C 5.375 -6.5 4.53125 -6.78125 3.671875 -6.78125 C 1.78125 -6.78125 0.765625 -4.9375 0.765625 -4.4375 C 0.765625 -4.234375 0.984375 -4.234375 1.125 -4.234375 C 1.3125 -4.234375 1.40625 -4.234375 1.46875 -4.421875 C 1.90625 -5.796875 2.984375 -6.234375 3.59375 -6.234375 C 4.171875 -6.234375 4.4375 -5.96875 4.4375 -5.484375 C 4.4375 -5.203125 4.234375 -4.375 4.09375 -3.84375 L 3.578125 -1.78125 C 3.359375 -0.875 2.8125 -0.421875 2.3125 -0.421875 C 2.234375 -0.421875 1.890625 -0.421875 1.59375 -0.640625 C 2.125 -0.796875 2.40625 -1.3125 2.40625 -1.6875 C 2.40625 -2.015625 2.140625 -2.375 1.65625 -2.375 C 1.125 -2.375 0.5625 -1.9375 0.5625 -1.203125 C 0.5625 -0.40625 1.359375 0.125 2.28125 0.125 C 3.140625 0.125 3.6875 -0.53125 3.890625 -0.796875 C 4.265625 -0.171875 5.09375 0.125 5.953125 0.125 C 7.84375 0.125 8.859375 -1.71875 8.859375 -2.21875 C 8.859375 -2.4375 8.640625 -2.4375 8.5 -2.4375 C 8.328125 -2.4375 8.21875 -2.4375 8.15625 -2.234375 C 7.71875 -0.875 6.640625 -0.421875 6.03125 -0.421875 C 5.453125 -0.421875 5.1875 -0.6875 5.1875 -1.171875 C 5.1875 -1.484375 5.390625 -2.28125 5.515625 -2.828125 C 5.625 -3.21875 5.96875 -4.640625 6.046875 -4.875 C 6.265625 -5.78125 6.796875 -6.234375 7.3125 -6.234375 C 7.390625 -6.234375 7.734375 -6.234375 8.046875 -6.015625 Z M 8.046875 -6.015625 "/>
</g>
<g id="glyph-1-3">
<path d="M 4.734375 -9.890625 C 4.796875 -10.09375 4.796875 -10.125 4.796875 -10.140625 C 4.796875 -10.328125 4.640625 -10.40625 4.46875 -10.40625 C 4.40625 -10.40625 4.390625 -10.40625 4.359375 -10.390625 L 2.4375 -10.3125 C 2.21875 -10.296875 1.953125 -10.28125 1.953125 -9.859375 C 1.953125 -9.578125 2.21875 -9.578125 2.34375 -9.578125 C 2.5 -9.578125 2.78125 -9.578125 2.96875 -9.5625 L 0.8125 -0.90625 C 0.796875 -0.84375 0.75 -0.609375 0.75 -0.5625 C 0.75 -0.1875 1.03125 0.125 1.46875 0.125 C 1.5625 0.125 2.234375 0.125 2.4375 -0.71875 L 3.34375 -4.28125 C 3.421875 -4.5625 3.421875 -4.59375 3.640625 -4.890625 C 3.890625 -5.21875 4.640625 -6.234375 5.875 -6.234375 C 6.265625 -6.234375 6.625 -6.09375 6.625 -5.359375 C 6.625 -4.484375 5.96875 -2.734375 5.6875 -2 C 5.515625 -1.59375 5.46875 -1.484375 5.46875 -1.234375 C 5.46875 -0.359375 6.34375 0.125 7.171875 0.125 C 8.765625 0.125 9.515625 -1.921875 9.515625 -2.21875 C 9.515625 -2.4375 9.28125 -2.4375 9.15625 -2.4375 C 8.96875 -2.4375 8.859375 -2.4375 8.8125 -2.234375 C 8.328125 -0.5625 7.5 -0.421875 7.265625 -0.421875 C 7.15625 -0.421875 7 -0.421875 7 -0.734375 C 7 -1.0625 7.171875 -1.46875 7.265625 -1.703125 C 7.546875 -2.4375 8.234375 -4.203125 8.234375 -5.046875 C 8.234375 -6.421875 7.078125 -6.78125 6 -6.78125 C 5.671875 -6.78125 4.75 -6.78125 3.734375 -5.84375 Z M 4.734375 -9.890625 "/>
</g>
<g id="glyph-2-0">
<path d="M 18.65625 -8 C 19.015625 -8 19.640625 -8 19.640625 -8.6875 C 19.640625 -9.34375 18.984375 -9.34375 18.671875 -9.34375 L 2.46875 -9.34375 C 2.15625 -9.34375 1.5 -9.34375 1.5 -8.6875 C 1.5 -8 2.125 -8 2.484375 -8 Z M 18.671875 -2.734375 C 18.984375 -2.734375 19.640625 -2.734375 19.640625 -3.390625 C 19.640625 -4.0625 19.015625 -4.0625 18.65625 -4.0625 L 2.484375 -4.0625 C 2.125 -4.0625 1.5 -4.0625 1.5 -3.390625 C 1.5 -2.734375 2.15625 -2.734375 2.46875 -2.734375 Z M 18.671875 -2.734375 "/>
</g>
<g id="glyph-2-1">
<path d="M 9.046875 5.78125 C 9.046875 5.6875 9.046875 5.640625 8.59375 5.203125 C 5.875 2.484375 4.84375 -1.765625 4.84375 -6.015625 C 4.84375 -10.78125 6.015625 -14.703125 8.734375 -17.4375 C 9.015625 -17.734375 9.046875 -17.75 9.046875 -17.84375 C 9.046875 -18.140625 8.75 -18.140625 8.640625 -18.140625 C 8.421875 -18.140625 8.375 -18.140625 7.734375 -17.625 C 4.25 -14.84375 2.609375 -10.40625 2.609375 -6.046875 C 2.609375 -1.59375 4.28125 2.734375 7.71875 5.53125 C 8.34375 6.078125 8.390625 6.078125 8.640625 6.078125 C 8.75 6.078125 9.046875 6.078125 9.046875 5.78125 Z M 9.046875 5.78125 "/>
</g>
<g id="glyph-2-2">
<path d="M 11.25 -5.375 L 18.671875 -5.375 C 18.984375 -5.375 19.640625 -5.375 19.640625 -6.015625 C 19.640625 -6.703125 19.015625 -6.703125 18.671875 -6.703125 L 11.25 -6.703125 L 11.25 -14.15625 C 11.25 -14.46875 11.25 -15.125 10.59375 -15.125 C 9.921875 -15.125 9.921875 -14.484375 9.921875 -14.15625 L 9.921875 -6.703125 L 2.46875 -6.703125 C 2.125 -6.703125 1.5 -6.703125 1.5 -6.015625 C 1.5 -5.375 2.15625 -5.375 2.46875 -5.375 L 9.921875 -5.375 L 9.921875 2.078125 C 9.921875 2.390625 9.921875 3.046875 10.5625 3.046875 C 11.25 3.046875 11.25 2.421875 11.25 2.078125 Z M 11.25 -5.375 "/>
</g>
<g id="glyph-2-3">
<path d="M 6.796875 -16.78125 L 3.09375 -13.71875 L 3.71875 -12.890625 L 6.796875 -14.953125 L 9.84375 -12.890625 L 10.46875 -13.71875 Z M 6.796875 -16.78125 "/>
</g>
<g id="glyph-2-4">
<path d="M 7.9375 -6.015625 C 7.9375 -10.46875 6.265625 -14.796875 2.828125 -17.609375 C 2.203125 -18.140625 2.15625 -18.140625 1.90625 -18.140625 C 1.796875 -18.140625 1.5 -18.140625 1.5 -17.84375 C 1.5 -17.75 1.5 -17.703125 1.953125 -17.265625 C 4.671875 -14.5625 5.703125 -10.296875 5.703125 -6.046875 C 5.703125 -1.28125 4.515625 2.640625 1.8125 5.375 C 1.53125 5.65625 1.5 5.6875 1.5 5.78125 C 1.5 6.078125 1.796875 6.078125 1.90625 6.078125 C 2.125 6.078125 2.171875 6.078125 2.8125 5.5625 C 6.28125 2.78125 7.9375 -1.671875 7.9375 -6.015625 Z M 7.9375 -6.015625 "/>
</g>
<g id="glyph-3-0">
<path d="M 7.71875 -10.765625 C 7.953125 -11.203125 8 -11.65625 8 -11.78125 C 8 -12.765625 7.0625 -13.59375 6.046875 -13.59375 C 5.421875 -13.59375 4.6875 -13.328125 4.328125 -12.21875 L 0.9375 -2.078125 C 0.921875 -1.984375 0.828125 -1.6875 0.828125 -1.625 C 0.828125 -1.40625 0.96875 -1.328125 1.421875 -1.140625 C 2.0625 -0.84375 2.109375 -0.84375 2.171875 -0.84375 C 2.390625 -0.84375 2.4375 -0.96875 2.609375 -1.28125 Z M 7.71875 -10.765625 "/>
</g>
<g id="glyph-4-0">
<path d="M 11.28125 -3.296875 C 11.5 -3.296875 11.953125 -3.296875 11.953125 -3.75 C 11.953125 -4.21875 11.515625 -4.21875 11.28125 -4.21875 L 2.109375 -4.21875 C 1.890625 -4.21875 1.4375 -4.21875 1.4375 -3.765625 C 1.4375 -3.296875 1.875 -3.296875 2.109375 -3.296875 Z M 11.28125 -3.296875 "/>
</g>
<g id="glyph-5-0">
<path d="M 5.1875 -9.40625 C 5.1875 -9.84375 5.15625 -9.84375 4.6875 -9.84375 C 3.5625 -8.875 1.90625 -8.875 1.578125 -8.875 L 1.296875 -8.875 L 1.296875 -8.234375 L 1.578125 -8.234375 C 2.09375 -8.234375 2.890625 -8.328125 3.5 -8.515625 L 3.5 -0.640625 L 1.40625 -0.640625 L 1.40625 0 C 2.046875 -0.03125 3.609375 -0.03125 4.3125 -0.03125 C 5.03125 -0.03125 6.609375 -0.03125 7.25 0 L 7.25 -0.640625 L 5.1875 -0.640625 Z M 5.1875 -9.40625 "/>
</g>
</g>
</defs>
<g fill="rgb(0%, 0%, 0%)" fill-opacity="1">
<use xlink:href="#glyph-0-0" x="4.758574" y="23.813409"/>
</g>
<g fill="rgb(0%, 0%, 0%)" fill-opacity="1">
<use xlink:href="#glyph-1-0" x="20.90168" y="15.038266"/>
</g>
<g fill="rgb(0%, 0%, 0%)" fill-opacity="1">
<use xlink:href="#glyph-1-1" x="20.90168" y="31.290683"/>
</g>
<g fill="rgb(0%, 0%, 0%)" fill-opacity="1">
<use xlink:href="#glyph-2-0" x="35.337948" y="23.813409"/>
</g>
<g fill="rgb(0%, 0%, 0%)" fill-opacity="1">
<use xlink:href="#glyph-0-1" x="64.220899" y="23.813409"/>
</g>
<g fill="rgb(0%, 0%, 0%)" fill-opacity="1">
<use xlink:href="#glyph-2-1" x="81.701801" y="23.813409"/>
</g>
<g fill="rgb(0%, 0%, 0%)" fill-opacity="1">
<use xlink:href="#glyph-0-2" x="92.281057" y="23.813409"/>
</g>
<g fill="rgb(0%, 0%, 0%)" fill-opacity="1">
<use xlink:href="#glyph-3-0" x="122.574526" y="15.038267"/>
</g>
<g fill="rgb(0%, 0%, 0%)" fill-opacity="1">
<use xlink:href="#glyph-1-2" x="118.712293" y="31.290683"/>
</g>
<g fill="rgb(0%, 0%, 0%)" fill-opacity="1">
<use xlink:href="#glyph-0-3" x="131.389489" y="23.813409"/>
</g>
<g fill="rgb(0%, 0%, 0%)" fill-opacity="1">
<use xlink:href="#glyph-1-1" x="147.325515" y="27.440559"/>
</g>
<g fill="rgb(0%, 0%, 0%)" fill-opacity="1">
<use xlink:href="#glyph-2-2" x="160.216902" y="23.813409"/>
</g>
<g fill="rgb(0%, 0%, 0%)" fill-opacity="1">
<use xlink:href="#glyph-0-2" x="187.554964" y="23.813409"/>
</g>
<g fill="rgb(0%, 0%, 0%)" fill-opacity="1">
<use xlink:href="#glyph-3-0" x="217.848432" y="15.038267"/>
</g>
<g fill="rgb(0%, 0%, 0%)" fill-opacity="1">
<use xlink:href="#glyph-1-3" x="213.986192" y="31.290683"/>
</g>
<g fill="rgb(0%, 0%, 0%)" fill-opacity="1">
<use xlink:href="#glyph-2-3" x="227.161534" y="17.768096"/>
</g>
<g fill="rgb(0%, 0%, 0%)" fill-opacity="1">
<use xlink:href="#glyph-0-0" x="226.663386" y="23.813409"/>
</g>
<g fill="rgb(0%, 0%, 0%)" fill-opacity="1">
<use xlink:href="#glyph-1-0" x="242.806486" y="15.038266"/>
</g>
<g fill="rgb(0%, 0%, 0%)" fill-opacity="1">
<use xlink:href="#glyph-1-1" x="242.806486" y="31.290683"/>
</g>
<g fill="rgb(0%, 0%, 0%)" fill-opacity="1">
<use xlink:href="#glyph-4-0" x="249.032428" y="31.290683"/>
</g>
<g fill="rgb(0%, 0%, 0%)" fill-opacity="1">
<use xlink:href="#glyph-5-0" x="262.442144" y="31.290683"/>
</g>
<g fill="rgb(0%, 0%, 0%)" fill-opacity="1">
<use xlink:href="#glyph-2-2" x="277.540589" y="23.813409"/>
</g>
<g fill="rgb(0%, 0%, 0%)" fill-opacity="1">
<use xlink:href="#glyph-0-4" x="304.878651" y="23.813409"/>
</g>
<g fill="rgb(0%, 0%, 0%)" fill-opacity="1">
<use xlink:href="#glyph-3-0" x="317.472917" y="15.038267"/>
</g>
<g fill="rgb(0%, 0%, 0%)" fill-opacity="1">
<use xlink:href="#glyph-1-3" x="317.472914" y="31.290683"/>
</g>
<g fill="rgb(0%, 0%, 0%)" fill-opacity="1">
<use xlink:href="#glyph-2-4" x="327.967495" y="23.813409"/>
</g>
</svg>
